<svg version="1.2" xmlns="http://www.w3.org/2000/svg" viewBox="0 0 121 46" width="121" height="46">
	<style>
		tspan { white-space:pre } 
		.s0 { fill: #110f0f } 
		.t1 { font-size: 19px;fill: #000000;font-weight: 700;font-family: "DejaVuSansCondensed-Bold", "DejaVu Sans" } 
	</style>
	<path class="s0" d="m40.64 8.16c-0.42-0.82-1.14-1.43-2.02-1.71l-19.67-6.28c-0.88-0.29-1.82-0.21-2.64 0.22-0.83 0.43-1.44 1.15-1.72 2.03l-1.31 4.08h-4.84c-1.92 0-3.47 1.56-3.47 3.47v32.56c0 1.91 1.55 3.47 3.47 3.47h20.64c1.92 0 3.47-1.56 3.47-3.47v-5.68l8.32-26.04c0.28-0.88 0.2-1.82-0.23-2.65zm-9.33 34.37c0 1.23-1 2.23-2.23 2.23h-20.64c-1.23 0-2.23-1-2.23-2.23v-32.56c0-1.23 1-2.22 2.23-2.22h20.64c1.23 0 2.23 0.99 2.23 2.22zm-12.63-14.6q0 0 0.01 0 0 0 0.01 0 0.01 0 0.01 0 0.03 0 0.05 0c4.58 0 8.3-3.72 8.3-8.29 0-4.58-3.72-8.3-8.3-8.3q-0.01 0-0.03 0-0.01 0-0.03 0-0.03 0-0.06 0-0.01 0-0.03 0c-4.51 0.09-8.15 3.77-8.15 8.3 0 4.54 3.68 8.24 8.22 8.29zm21-17.5l-7.13 22.33v-22.79c0-1.91-1.55-3.47-3.47-3.47h-14.49l1.18-3.71c0.18-0.56 0.58-1.02 1.11-1.29 0.53-0.28 1.13-0.33 1.69-0.15l19.67 6.28c0.56 0.18 1.02 0.57 1.3 1.1 0.27 0.53 0.32 1.13 0.14 1.7zm-24.18 12.04h2.64v3.69c-1.22-0.97-2.12-2.25-2.64-3.69zm3.88 3.59v-3.59h2.53c-0.5 1.39-1.37 2.63-2.53 3.59zm0-9.26v-3.59c1.16 0.96 2.02 2.19 2.52 3.59zm-1.24-3.69v3.69h-2.64c0.52-1.44 1.42-2.71 2.64-3.69zm0 4.93v3.19h-2.98q-0.15-0.8-0.15-1.61 0-0.81 0.15-1.58zm-4.24 3.19h-2.01q-0.18-0.77-0.18-1.59 0-0.83 0.18-1.6h2.01q-0.13 0.79-0.13 1.61 0 0.8 0.13 1.58zm7 5.13c1.07-1.09 1.87-2.42 2.32-3.89h2c-0.81 1.84-2.39 3.27-4.32 3.89zm4.32-9.56h-2c-0.45-1.46-1.24-2.8-2.32-3.89 1.94 0.62 3.51 2.05 4.32 3.89zm-8.78-3.82c-1.04 1.08-1.81 2.39-2.24 3.82h-1.89c0.78-1.78 2.28-3.17 4.13-3.82zm-4.13 9.49h1.88c0.44 1.43 1.2 2.74 2.25 3.82-1.85-0.65-3.35-2.04-4.13-3.82zm13.51-2.83q-0.01 0.82-0.19 1.59h-2.12q0.13-0.79 0.13-1.61 0-0.8-0.13-1.58h2.12q0.18 0.77 0.19 1.6zm-3.42 0.01q0 0.81-0.15 1.58h-2.87v-3.19h2.87q0.15 0.8 0.15 1.61zm4.75 13.09q-0.01 0.26-0.19 0.44-0.18 0.18-0.43 0.18h-15.53q-0.25-0.01-0.43-0.18-0.18-0.19-0.18-0.44 0-0.25 0.18-0.44 0.18-0.17 0.43-0.18h15.53q0.12 0 0.23 0.05 0.12 0.04 0.2 0.13 0.09 0.09 0.14 0.2 0.05 0.12 0.05 0.24zm0 4.39q-0.01 0.25-0.19 0.44-0.18 0.18-0.43 0.18h-15.53q-0.25-0.01-0.43-0.19-0.18-0.18-0.18-0.43 0-0.26 0.18-0.44 0.18-0.18 0.43-0.18h15.53q0.25 0 0.43 0.18 0.18 0.18 0.19 0.44zm-3.52 4.39q-0.01 0.25-0.19 0.44-0.18 0.17-0.44 0.18h-8.48q-0.25-0.01-0.43-0.19-0.18-0.18-0.18-0.43 0-0.26 0.18-0.44 0.18-0.18 0.43-0.19h8.48q0.26 0.01 0.44 0.19 0.18 0.18 0.19 0.44z"/>
	<text id="Airotolly" transform="translate(37,35)">
		<tspan x="0" y="0" class="t1">A</tspan><tspan  y="0" class="t1">i</tspan><tspan  y="0" class="t1">r</tspan><tspan  y="0" class="t1">o</tspan><tspan  y="0" class="t1">t</tspan><tspan  y="0" class="t1">o</tspan><tspan  y="0" class="t1">l</tspan><tspan  y="0" class="t1">l</tspan><tspan  y="0" class="t1">y
</tspan>
	</text>
</svg>